<?xml version="1.0" encoding="utf-8"?>
<!-- Generator: Adobe Illustrator 26.0.1, SVG Export Plug-In . SVG Version: 6.00 Build 0)  -->
<svg version="1.1" id="Layer_1" xmlns="http://www.w3.org/2000/svg" xmlns:xlink="http://www.w3.org/1999/xlink" x="0px" y="0px"
	 viewBox="0 0 216.65 182.45" style="enable-background:new 0 0 216.65 182.45;" xml:space="preserve">
<style type="text/css">
	.st0{fill:#DFDCDC;}
	.st1{fill:#4F4949;}
</style>
<path class="st0" d="M2.38,182.01v-43.93c6.91,0,11.87-0.97,14.9-2.81c3.02-1.84,4.53-5.4,4.53-10.47V64.89
	c0-5.18-1.51-8.74-4.53-10.58c-3.02-1.84-7.99-2.81-14.9-2.81V7.57h125.76c11.33,0,22.24,1.51,32.82,4.53
	c10.58,3.02,19.97,7.88,28.28,14.68c8.2,6.8,14.9,15.76,19.86,26.99c4.97,11.23,7.56,24.94,7.56,41.34s-2.48,30.12-7.45,41.24
	c-4.97,11.12-11.66,20.08-20.19,26.88c-8.53,6.8-18.46,11.66-29.79,14.68c-11.33,3.02-23.42,4.53-36.27,4.53L2.38,182.01z
	 M102.88,138.08c4.32,0,8.64-0.43,12.74-1.4c4.1-0.97,7.77-2.91,10.9-5.94c3.13-3.02,5.72-7.34,7.66-12.95
	c1.94-5.61,2.91-13.28,2.91-22.78c0-9.39-0.97-16.95-2.81-22.67s-4.32-10.15-7.45-13.17c-3.02-3.13-6.69-5.07-10.9-6.15
	c-4.21-0.97-8.64-1.51-13.06-1.51H91.76v86.57H102.88z"/>
<path class="st1" d="M0,170.07v-42.83c6.74,0,11.58-0.95,14.52-2.74c2.95-1.79,4.42-5.26,4.42-10.21V55.88
	c0-5.05-1.47-8.52-4.42-10.31C11.58,43.78,6.74,42.83,0,42.83V0h122.61c11.05,0,21.68,1.47,31.99,4.42
	c10.31,2.95,19.47,7.68,27.57,14.31c8,6.63,14.52,15.37,19.36,26.31s7.37,24.31,7.37,40.31s-2.42,29.36-7.26,40.2
	c-4.84,10.84-11.37,19.57-19.68,26.2c-8.31,6.63-18,11.37-29.05,14.31c-11.05,2.95-22.84,4.42-35.36,4.42L0,170.07z M97.98,127.24
	c4.21,0,8.42-0.42,12.42-1.37c4-0.95,7.58-2.84,10.63-5.79c3.05-2.95,5.58-7.16,7.47-12.63c1.89-5.47,2.84-12.94,2.84-22.21
	c0-9.16-0.95-16.52-2.74-22.1c-1.79-5.58-4.21-9.89-7.26-12.84c-2.95-3.05-6.52-4.95-10.63-6c-4.1-0.95-8.42-1.47-12.73-1.47H87.14
	v84.4H97.98z"/>
</svg>
