<?xml version="1.0" encoding="utf-8"?>
<!-- Generator: Adobe Illustrator 23.1.1, SVG Export Plug-In . SVG Version: 6.00 Build 0)  -->
<svg version="1.1" id="Layer_1" xmlns="http://www.w3.org/2000/svg" xmlns:xlink="http://www.w3.org/1999/xlink" x="0px" y="0px"
	 viewBox="0 0 958.8 104.7" style="enable-background:new 0 0 958.8 104.7;" xml:space="preserve">
<style type="text/css">
	.st0{fill:#5A5653;}
</style>
<g>
	<path class="st0" d="M0,102.1V76.4c4.1,0,7-0.5,8.7-1.6c1.8-1.1,2.6-3.1,2.6-6.1V33.6c0-3.1-0.9-5.1-2.6-6.2
		C7,26.3,4.1,25.7,0,25.7V0h73.6c6.6,0,13,0.9,19.2,2.6c6.2,1.8,11.7,4.6,16.5,8.6c4.8,4,8.7,9.2,11.7,15.8
		c2.9,6.5,4.4,14.6,4.4,24.2s-1.4,17.6-4.3,24.1c-2.9,6.5-6.8,11.8-11.8,15.7c-5,4-10.8,6.8-17.4,8.6c-6.7,1.8-13.7,2.6-21.2,2.6
		L0,102.1z M58.8,76.4c2.5,0,5-0.3,7.5-0.8c2.4-0.6,4.6-1.7,6.4-3.5c1.8-1.8,3.3-4.3,4.5-7.6c1.2-3.3,1.7-7.8,1.7-13.3
		c0-5.5-0.6-9.9-1.7-13.3c-1.1-3.4-2.6-5.9-4.3-7.7c-1.8-1.8-3.9-3-6.4-3.6c-2.5-0.6-5-0.9-7.7-0.9h-6.5v50.7H58.8z"/>
	<path class="st0" d="M128.3,102.2V80c3.5,0,6-0.5,7.5-1.4c1.5-0.9,2.3-2.7,2.3-5.3V43.1c0-2.6-0.8-4.4-2.3-5.3
		c-1.5-0.9-4-1.4-7.5-1.4V14.2H183v22.2c-3.5,0-6,0.5-7.5,1.4c-1.5,0.9-2.2,2.7-2.2,5.3v30.2c0,2.6,0.7,4.4,2.2,5.3
		c1.5,0.9,4,1.4,7.5,1.4v22.2H128.3z"/>
	<path class="st0" d="M189.4,102.2V80c3.5,0,6-0.5,7.5-1.4c1.5-0.9,2.3-2.7,2.3-5.3V43.1c0-2.6-0.8-4.4-2.3-5.3
		c-1.5-0.9-4-1.4-7.5-1.4V14.2h63.3c5.9,0,10.8,0.6,14.8,1.7c4,1.2,7.2,2.8,9.6,5c2.4,2.2,4.1,4.7,5.1,7.7c1,3,1.5,6.3,1.5,10
		c0,6.7-1.6,12-4.8,16c-3.2,4-8.4,6.2-15.5,6.5v0.7c3.4,0.2,6.3,0.9,8.5,1.9c2.2,1,4,2.4,5.3,4c1.3,1.7,2.2,3.6,2.7,6
		c0.5,2.3,0.8,5,0.8,7.9v3.2c0,1,0.3,1.9,0.8,2.6c0.5,0.7,1.3,1.1,2.4,1.1c1.2,0,2-0.4,2.4-1.1c0.5-0.7,0.7-1.6,0.7-2.6V69.6h6.9
		v15.2c0,2.9-0.4,5.5-1.3,7.9c-0.9,2.4-2.3,4.5-4.2,6.3c-2,1.8-4.5,3.2-7.7,4.2c-3.2,1-7.1,1.5-11.8,1.5s-8.5-0.5-11.4-1.5
		c-3-1-5.3-2.4-7-4.2c-1.7-1.8-2.8-3.9-3.5-6.2c-0.7-2.4-1-4.9-1-7.5v-4.6c0-3.2-0.2-5.8-0.5-7.7c-0.4-2-0.9-3.5-1.8-4.6
		c-0.8-1.1-1.9-1.8-3.2-2.2c-1.3-0.4-2.9-0.5-4.8-0.5h-1.4V74c0,2.1,0.6,3.6,1.8,4.6c1.2,0.9,3.3,1.4,6.3,1.4v22.2H189.4z
		 M234.5,54.9h5.3c3.3,0,5.6-0.8,6.9-2.4c1.3-1.6,1.9-3.9,1.9-6.7c0-3.3-0.6-5.8-1.9-7.2c-1.3-1.5-3.6-2.2-6.9-2.2h-5.3V54.9z"/>
	<path class="st0" d="M353.9,80c1.6,0,3-0.1,4.1-0.4c1.1-0.3,2-0.8,2.6-1.6c0.7-0.8,1.1-1.8,1.3-3.2c0.2-1.4,0.4-3.1,0.4-5.2h20.9
		v32.6h-85.1V80c3.5,0,6-0.5,7.5-1.4c1.5-0.9,2.3-2.7,2.3-5.3V43.1c0-2.6-0.8-4.4-2.3-5.3c-1.5-0.9-4-1.4-7.5-1.4V14.2h85.1v32.6
		h-20.9c0-2.1-0.1-3.8-0.4-5.2c-0.2-1.4-0.7-2.4-1.3-3.2c-0.7-0.8-1.5-1.3-2.6-1.6c-1.1-0.3-2.5-0.4-4.1-0.4h-10.8v15.9h19.1v10.6
		h-19.1V80H353.9z"/>
	<path class="st0" d="M432.2,11.8c2.7,0,5.2,0.2,7.5,0.7c2.3,0.4,4.4,1,6.4,1.7c1.9,0.7,3.6,1.4,5,2.2c1.4,0.8,2.5,1.5,3.4,2.1v-4.3
		h19.7v32.6h-20.9c0-2.7-0.3-4.9-1-6.7c-0.7-1.8-1.5-3.2-2.6-4.4c-1.1-1.1-2.4-1.9-3.9-2.4c-1.5-0.5-3.1-0.7-4.8-0.7
		c-2.4,0-4.4,0.4-6,1.3c-1.7,0.9-3,2.3-4.1,4.3c-1.1,2-1.9,4.6-2.4,7.9c-0.5,3.3-0.8,7.3-0.8,12.1c0,4.8,0.3,8.8,0.9,12.1
		c0.6,3.2,1.5,5.9,2.6,7.9c1.2,2,2.7,3.5,4.5,4.4c1.8,0.9,4,1.3,6.6,1.3c1.7,0,3.4-0.3,5-1c1.6-0.7,3-1.7,4.2-3
		c1.2-1.4,2.2-3,2.9-5.1c0.7-2,1-4.5,1-7.3h20.8c0,5.1-0.8,9.8-2.4,14.3c-1.6,4.5-4.1,8.4-7.5,11.8c-3.4,3.4-7.7,6.1-12.9,8.1
		c-5.2,2-11.4,3-18.6,3c-6.5,0-12.6-0.9-18.3-2.6c-5.8-1.8-10.8-4.5-15.1-8.2c-4.3-3.7-7.7-8.6-10.2-14.4
		c-2.5-5.9-3.7-12.9-3.7-21.2c0-8.2,1.3-15.3,3.8-21.2c2.5-5.9,5.9-10.7,10-14.4c4.2-3.7,8.9-6.5,14.2-8.2
		C420.9,12.7,426.5,11.8,432.2,11.8z"/>
	<path class="st0" d="M577.6,14.2v35H558c0-2.7-0.1-5-0.2-7c-0.1-2-0.4-3.6-0.9-4.8c-0.5-1.2-1.2-2.1-2.2-2.7
		c-1-0.6-2.3-0.9-3.9-0.9H547v39.4c0,2.6,0.8,4.4,2.3,5.3c1.5,0.9,4,1.4,7.5,1.4v22.2h-54.8V80c3.5,0,6-0.5,7.5-1.4
		c1.5-0.9,2.2-2.7,2.2-5.3V33.9h-3.6c-1.6,0-2.9,0.3-3.9,0.9c-1,0.6-1.7,1.5-2.2,2.7c-0.5,1.2-0.8,2.8-0.9,4.8c-0.1,2-0.2,4.3-0.2,7
		h-19.7v-35H577.6z"/>
	<path class="st0" d="M580.9,58.3c0-7.7,1.3-14.4,3.8-20.2c2.5-5.8,6.1-10.6,10.7-14.5c4.6-3.9,10.1-6.8,16.5-8.8
		c6.4-2,13.4-2.9,21.1-2.9c7.6,0,14.7,1,21,2.9c6.4,2,11.9,4.9,16.5,8.8c4.6,3.9,8.2,8.8,10.7,14.5c2.5,5.8,3.8,12.5,3.8,20.2
		c0,7.6-1.3,14.4-3.8,20.2c-2.5,5.8-6.1,10.7-10.7,14.6c-4.6,3.9-10.1,6.9-16.5,8.8c-6.4,2-13.4,2.9-21,2.9c-7.7,0-14.7-1-21.1-2.9
		c-6.4-2-11.8-4.9-16.5-8.8c-4.6-3.9-8.2-8.8-10.7-14.6C582.2,72.6,580.9,65.9,580.9,58.3z M621.1,58.3c0,4.8,0.2,8.8,0.5,12.1
		c0.4,3.2,1,5.9,1.9,7.9c0.9,2,2.1,3.5,3.6,4.4c1.5,0.9,3.5,1.3,5.9,1.3c2.3,0,4.2-0.4,5.7-1.3c1.6-0.9,2.8-2.4,3.7-4.4
		c0.9-2,1.5-4.6,1.9-7.9c0.4-3.2,0.5-7.3,0.5-12.1c0-4.7-0.2-8.8-0.5-12.1c-0.4-3.3-1-6-1.9-7.9c-0.9-2-2.1-3.4-3.7-4.3
		c-1.6-0.9-3.5-1.3-5.7-1.3c-2.4,0-4.3,0.4-5.9,1.3c-1.5,0.9-2.7,2.3-3.6,4.3c-0.9,2-1.5,4.6-1.9,7.9
		C621.3,49.5,621.1,53.5,621.1,58.3z"/>
	<path class="st0" d="M687.5,102.2V80c3.5,0,6-0.5,7.5-1.4c1.5-0.9,2.3-2.7,2.3-5.3V43.1c0-2.6-0.8-4.4-2.3-5.3
		c-1.5-0.9-4-1.4-7.5-1.4V14.2h63.3c5.9,0,10.8,0.6,14.8,1.7c4,1.2,7.2,2.8,9.6,5c2.4,2.2,4.1,4.7,5.1,7.7c1,3,1.5,6.3,1.5,10
		c0,6.7-1.6,12-4.8,16c-3.2,4-8.4,6.2-15.5,6.5v0.7c3.4,0.2,6.3,0.9,8.5,1.9c2.2,1,4,2.4,5.3,4c1.3,1.7,2.2,3.6,2.7,6
		c0.5,2.3,0.8,5,0.8,7.9v3.2c0,1,0.3,1.9,0.8,2.6c0.5,0.7,1.3,1.1,2.4,1.1c1.2,0,2-0.4,2.4-1.1c0.5-0.7,0.7-1.6,0.7-2.6V69.6h6.9
		v15.2c0,2.9-0.4,5.5-1.3,7.9c-0.9,2.4-2.3,4.5-4.2,6.3c-2,1.8-4.5,3.2-7.7,4.2c-3.2,1-7.1,1.5-11.8,1.5s-8.5-0.5-11.4-1.5
		c-3-1-5.3-2.4-7-4.2c-1.7-1.8-2.8-3.9-3.5-6.2c-0.7-2.4-1-4.9-1-7.5v-4.6c0-3.2-0.2-5.8-0.5-7.7c-0.4-2-0.9-3.5-1.8-4.6
		c-0.8-1.1-1.9-1.8-3.2-2.2c-1.3-0.4-2.9-0.5-4.8-0.5h-1.4V74c0,2.1,0.6,3.6,1.8,4.6c1.2,0.9,3.3,1.4,6.3,1.4v22.2H687.5z
		 M732.5,54.9h5.3c3.3,0,5.6-0.8,6.9-2.4c1.3-1.6,1.9-3.9,1.9-6.7c0-3.3-0.6-5.8-1.9-7.2c-1.3-1.5-3.6-2.2-6.9-2.2h-5.3V54.9z"/>
	<path class="st0" d="M797.5,102.2V80c3.5,0,6-0.5,7.5-1.4c1.5-0.9,2.3-2.7,2.3-5.3V43.1c0-2.6-0.8-4.4-2.3-5.3
		c-1.5-0.9-4-1.4-7.5-1.4V14.2h54.8v22.2c-3.5,0-6,0.5-7.5,1.4c-1.5,0.9-2.2,2.7-2.2,5.3v30.2c0,2.6,0.7,4.4,2.2,5.3
		c1.5,0.9,4,1.4,7.5,1.4v22.2H797.5z"/>
	<path class="st0" d="M854.8,58.3c0-7.7,1.3-14.4,3.8-20.2c2.5-5.8,6.1-10.6,10.7-14.5c4.6-3.9,10.1-6.8,16.5-8.8
		c6.4-2,13.4-2.9,21.1-2.9c7.6,0,14.7,1,21,2.9s11.9,4.9,16.5,8.8c4.6,3.9,8.2,8.8,10.7,14.5c2.5,5.8,3.8,12.5,3.8,20.2
		c0,7.6-1.3,14.4-3.8,20.2c-2.5,5.8-6.1,10.7-10.7,14.6c-4.6,3.9-10.1,6.9-16.5,8.8s-13.4,2.9-21,2.9c-7.7,0-14.7-1-21.1-2.9
		c-6.4-2-11.8-4.9-16.5-8.8c-4.6-3.9-8.2-8.8-10.7-14.6C856,72.6,854.8,65.9,854.8,58.3z M894.9,58.3c0,4.8,0.2,8.8,0.5,12.1
		c0.4,3.2,1,5.9,1.9,7.9c0.9,2,2.1,3.5,3.6,4.4c1.5,0.9,3.5,1.3,5.9,1.3c2.3,0,4.2-0.4,5.7-1.3c1.6-0.9,2.8-2.4,3.7-4.4
		c0.9-2,1.5-4.6,1.9-7.9c0.4-3.2,0.5-7.3,0.5-12.1c0-4.7-0.2-8.8-0.5-12.1c-0.4-3.3-1-6-1.9-7.9c-0.9-2-2.1-3.4-3.7-4.3
		c-1.6-0.9-3.5-1.3-5.7-1.3c-2.4,0-4.3,0.4-5.9,1.3c-1.5,0.9-2.7,2.3-3.6,4.3c-0.9,2-1.5,4.6-1.9,7.9
		C895.1,49.5,894.9,53.5,894.9,58.3z"/>
</g>
</svg>
