<?xml version="1.0" encoding="utf-8"?>
<!-- Generator: Adobe Illustrator 23.1.1, SVG Export Plug-In . SVG Version: 6.00 Build 0)  -->
<svg version="1.1" id="Layer_1" xmlns="http://www.w3.org/2000/svg" xmlns:xlink="http://www.w3.org/1999/xlink" x="0px" y="0px"
	 viewBox="0 0 250 250" style="enable-background:new 0 0 250 250;" xml:space="preserve">
<style type="text/css">
	.st0{fill:#5A5653;}
	.st1{fill:url(#SVGID_1_);}
</style>
<path class="st0" d="M239.7,250H10.3C4.6,250,0,245.4,0,239.7V10.3C0,4.6,4.6,0,10.3,0h229.3c5.7,0,10.3,4.6,10.3,10.3v229.3
	C250,245.4,245.4,250,239.7,250z"/>
<linearGradient id="SVGID_1_" gradientUnits="userSpaceOnUse" x1="25.7767" y1="125" x2="224.2233" y2="125">
	<stop  offset="0" style="stop-color:#FFFFFF"/>
	<stop  offset="1" style="stop-color:#FFFFFF"/>
</linearGradient>
<path class="st1" d="M25.8,205.7V165c6.4,0,11-0.9,13.8-2.6c2.8-1.7,4.2-5,4.2-9.7V97.2c0-4.8-1.4-8.1-4.2-9.8
	c-2.8-1.7-7.4-2.6-13.8-2.6V44.1h116.5c10.5,0,20.6,1.4,30.4,4.2c9.8,2.8,18.5,7.3,26.2,13.6c7.6,6.3,13.8,14.6,18.4,25
	c4.6,10.4,7,23.1,7,38.3s-2.3,27.9-6.9,38.2c-4.6,10.3-10.8,18.6-18.7,24.9c-7.9,6.3-17.1,10.8-27.6,13.6
	c-10.5,2.8-21.7,4.2-33.6,4.2L25.8,205.7z M118.9,165c4,0,8-0.4,11.8-1.3c3.8-0.9,7.2-2.7,10.1-5.5c2.9-2.8,5.3-6.8,7.1-12
	c1.8-5.2,2.7-12.3,2.7-21.1c0-8.7-0.9-15.7-2.6-21s-4-9.4-6.9-12.2c-2.8-2.9-6.2-4.7-10.1-5.7c-3.9-0.9-8-1.4-12.1-1.4h-10.3V165
	H118.9z"/>
</svg>
