<?xml version="1.0" encoding="utf-8"?>
<!-- Generator: Adobe Illustrator 23.0.4, SVG Export Plug-In . SVG Version: 6.00 Build 0)  -->
<svg version="1.1" id="Layer_1" xmlns="http://www.w3.org/2000/svg" xmlns:xlink="http://www.w3.org/1999/xlink" x="0px" y="0px"
	 viewBox="0 0 512 512" style="enable-background:new 0 0 512 512;" xml:space="preserve">
<style type="text/css">
	.st0{fill:#BA6F3C;}
	.st1{fill:#AA5B26;}
	.st2{fill:#FAAA3C;}
	.st3{fill:#FFEB9B;}
	.st4{fill:#F8C298;}
	.st5{fill:#FFD6C0;}
	.st6{fill:#ED7A98;}
	.st7{fill:#E79732;}
	.st8{fill:#EBEEF2;}
</style>
<path class="st0" d="M194.8,328.1h123c28.2,0,51.9-21.3,54.9-49.3l14.3-133.2C395.4,67.8,334.5,0,256.3,0
	c-78.2,0-139.1,67.8-130.7,145.6l14.3,133.2C142.9,306.8,166.6,328.1,194.8,328.1z"/>
<path class="st1" d="M153.1,126.4c-3.2,0.3-5.9,2.6-6.7,5.9c-1,4.2,1.6,8.3,5.7,9.3c3.3,0.8,7.5,1.6,12.3,2.4v-15.5
	C160.1,127.9,156.3,127.2,153.1,126.4z"/>
<path class="st1" d="M375.1,167.4l3.5-26c0.6-4.2-2.4-8.1-6.6-8.7c-4.2-0.6-8.1,2.4-8.7,6.6l-3.7,28.1H375.1z"/>
<path class="st2" d="M387.8,417.7v84c0,5.7-4.6,10.3-10.3,10.3H135.1c-5.7,0-10.3-4.6-10.3-10.3v-84c0-37.4,20.4-69.9,50.6-87.2
	c14.7-8.4,31.7-13.2,49.8-13.2h62.2c18.5,0,35.8,5,50.7,13.7C367.9,348.4,387.8,380.7,387.8,417.7z"/>
<path class="st3" d="M337.7,331c-3,42.3-38.2,75.8-81.3,75.8c-43.3,0-78.7-33.7-81.4-76.3c14.7-8.4,31.7-13.2,49.8-13.2H287
	C305.5,317.2,322.8,322.2,337.7,331z"/>
<g>
	<path class="st4" d="M256.3,355.5c-12.8,0-23.2-10.4-23.2-23.2v-65h46.4v65C279.5,345.1,269.1,355.5,256.3,355.5z"/>
	<path class="st4" d="M392.7,189c0,17.2-14,31.2-31.2,31.2s-31.2-14-31.2-31.2s14-31.2,31.2-31.2S392.7,171.7,392.7,189z"/>
	<path class="st4" d="M182.4,189c0,17.2-14,31.2-31.2,31.2c-17.2,0-31.2-14-31.2-31.2s14-31.2,31.2-31.2
		C168.5,157.8,182.4,171.7,182.4,189z"/>
</g>
<path class="st5" d="M157.9,100.4l14.9,119.4c5.3,42.1,41,73.7,83.5,73.7s78.2-31.6,83.5-73.7l14.9-119.4H157.9z"/>
<path class="st1" d="M210.6,194.9c-4.2,0-7.6-3.3-7.7-7.5l-0.1-4.9c-0.1-4.3,3.2-7.8,7.5-7.9c4.3-0.1,7.8,3.2,7.9,7.5l0.1,4.9
	c0.1,4.3-3.2,7.8-7.5,7.9C210.8,194.9,210.7,194.9,210.6,194.9z"/>
<path class="st1" d="M302.1,194.9c-4.2,0-7.6-3.3-7.7-7.5l-0.1-4.9c-0.1-4.3,3.2-7.8,7.5-7.9c4.3-0.1,7.8,3.2,7.9,7.5l0.1,4.9
	c0.1,4.3-3.2,7.8-7.5,7.9C302.3,194.9,302.2,194.9,302.1,194.9z"/>
<path class="st6" d="M256.3,238.8c13.4,0,26.2,6.5,34.1,17.4c2.5,3.5,1.7,8.3-1.7,10.8c-3.5,2.5-8.3,1.7-10.8-1.7
	c-5-6.9-13.1-11-21.6-11s-16.6,4.1-21.6,11c-2.5,3.5-7.3,4.2-10.8,1.7c-3.5-2.5-4.2-7.3-1.7-10.8
	C230.2,245.3,242.9,238.8,256.3,238.8z"/>
<path class="st7" d="M176,405.8V512h-15.5V405.8c0-4.3,3.5-7.7,7.7-7.7C172.6,398.1,176,401.6,176,405.8z"/>
<path class="st7" d="M352.1,405.8V512h-15.5V405.8c0-4.3,3.5-7.7,7.7-7.7C348.6,398.1,352.1,401.6,352.1,405.8z"/>
<path class="st0" d="M142.8,89.3v34.3c0,0,64.4,22.9,110.7-19.5c0,0,17.8,56.6,94.4,68.3c5.9,0.9,11.3-3.2,12.1-9.1l9.8-74H142.8z"
	/>
<path class="st6" d="M319,218.7c0,4.7-3.8,8.4-8.4,8.4s-8.4-3.8-8.4-8.4s3.8-8.4,8.4-8.4S319,214.1,319,218.7z"/>
<path class="st6" d="M210.5,218.7c0,4.7-3.8,8.4-8.4,8.4c-4.7,0-8.4-3.8-8.4-8.4s3.8-8.4,8.4-8.4
	C206.7,210.3,210.5,214.1,210.5,218.7z"/>
<path class="st8" d="M279.5,475c0,12.8-10.4,23.2-23.2,23.2s-23.2-10.4-23.2-23.2s10.4-23.2,23.2-23.2S279.5,462.2,279.5,475z"/>
<path class="st8" d="M247.6,462.3c-3.8,0-7.1-2.8-7.6-6.7l-2.9-21.2c-0.6-4.2,2.4-8.1,6.6-8.7c4.2-0.6,8.1,2.4,8.7,6.6l2.9,21.2
	c0.6,4.2-2.4,8.1-6.6,8.7C248.3,462.3,247.9,462.3,247.6,462.3z"/>
<path class="st8" d="M265.1,462.3c-0.4,0-0.7,0-1.1-0.1c-4.2-0.6-7.2-4.5-6.6-8.7l2.9-21.2c0.6-4.2,4.5-7.2,8.7-6.6
	c4.2,0.6,7.2,4.5,6.6,8.7l-2.9,21.2C272.2,459.5,268.9,462.3,265.1,462.3z"/>
</svg>
