<?xml version="1.0" encoding="utf-8"?>
<!-- Generator: Adobe Illustrator 23.0.4, SVG Export Plug-In . SVG Version: 6.00 Build 0)  -->
<svg version="1.1" id="Layer_1" xmlns="http://www.w3.org/2000/svg" xmlns:xlink="http://www.w3.org/1999/xlink" x="0px" y="0px"
	 viewBox="0 0 512 512" style="enable-background:new 0 0 512 512;" xml:space="preserve">
<style type="text/css">
	.st0{fill:#EBEEF2;}
	.st1{fill:#D3D8DF;}
	.st2{fill:#7FB7EA;}
	.st3{fill:#E39F6E;}
	.st4{fill:#627687;}
	.st5{fill:#455E6D;}
	.st6{fill:#F8C298;}
	.st7{fill:#AA5B26;}
</style>
<path class="st0" d="M394.6,388.4v113.3c0,5.7-4.6,10.3-10.3,10.3h-259c-5.7,0-10.3-4.6-10.3-10.3V388.4c0-36.6,29.7-66.3,66.3-66.3
	h147C365,322.1,394.6,351.8,394.6,388.4z"/>
<path class="st1" d="M394.6,388.4v113.3c0,5.7-4.6,10.3-10.3,10.3h-12.3V388.4c0-36.6-29.7-66.3-66.3-66.3h22.6
	C365,322.1,394.6,351.8,394.6,388.4z"/>
<path class="st2" d="M169,449.5h171.6V512H169V449.5z"/>
<path class="st3" d="M256.4,359.5c-12.5,0-22.6-10.1-22.6-22.6v-63.4H279v63.4C279,349.3,268.9,359.5,256.4,359.5z"/>
<path class="st4" d="M384.9,129c0,6.2-0.5,12.5-1.5,18.8c-0.3,2.1-0.7,4.3-1.2,6.4l-6.3,30.8H136.9l-6.3-30.8
	c-9.1-44.2,5.7-86.9,34.5-116.1C188.1,14.8,220.2,0,256.4,0c55.4,0,101.4,34.7,119.8,82c2.6,6.7,4.7,13.7,6.1,20.8
	c0.1,0.5,0.2,1.1,0.3,1.6c1.1,6,1.9,12.1,2.1,18.3C384.9,124.8,385,126.9,384.9,129z"/>
<g>
	<path class="st5" d="M167.2,140.8C167.2,140.8,167.2,140.8,167.2,140.8c-6.4-0.1-11.7-0.7-15.3-1.3c-3.7,0-7.1,2.6-7.7,6.4
		c-0.7,4.2,2.1,8.2,6.4,8.9c5.9,1,16,2,28.3,0.9v-15.5C174.6,140.6,170.7,140.8,167.2,140.8z"/>
	<path class="st5" d="M340.5,147.4v15.5c14.9-2.6,29.3-7.6,42.9-15c0.9-5.9,1.4-11.7,1.5-17.4C369.9,139.3,355,144.7,340.5,147.4z"
		/>
	<path class="st5" d="M382.7,104.4l-40-25.5c-3.6-2.3-4.6-7.1-2.4-10.7c2.3-3.6,7.1-4.6,10.7-2.4L376.3,82
		c2.6,6.7,4.7,13.7,6.1,20.8C382.5,103.4,382.6,103.9,382.7,104.4z"/>
</g>
<path class="st3" d="M389.3,197.1c0,16.8-13.6,30.4-30.4,30.4s-30.4-13.6-30.4-30.4s13.6-30.4,30.4-30.4S389.3,180.3,389.3,197.1z"
	/>
<path class="st3" d="M184.4,197.1c0,16.8-13.6,30.4-30.4,30.4s-30.4-13.6-30.4-30.4s13.6-30.4,30.4-30.4S184.4,180.3,184.4,197.1z"
	/>
<path class="st6" d="M256.4,299c-41.4,0-76.2-30.8-81.4-71.8L159.9,106h193l-15.1,121.2C332.7,268.2,297.8,299,256.4,299z"/>
<path class="st4" d="M146.2,138.3c0,0,41.7,11.8,79.9-16.2c0,0,85.5,60.6,168.6,1.9c4.2-3,4.1-9.3-0.2-12l-51.7-32.9H146.2V138.3z"
	/>
<path class="st7" d="M210.3,203.1c-4.2,0-7.6-3.3-7.7-7.5l-0.1-4.8c-0.1-4.3,3.2-7.8,7.5-7.9c4.3-0.1,7.8,3.2,7.9,7.5l0.1,4.8
	c0.1,4.3-3.2,7.8-7.5,7.9C210.4,203.1,210.4,203.1,210.3,203.1z"/>
<path class="st7" d="M299.5,203.1c-4.2,0-7.6-3.3-7.7-7.5l-0.1-4.8c-0.1-4.3,3.2-7.8,7.5-7.9c4.3-0.1,7.8,3.2,7.9,7.5l0.1,4.8
	c0.1,4.3-3.2,7.8-7.5,7.9C299.6,203.1,299.6,203.1,299.5,203.1z"/>
<path class="st3" d="M254.8,235.5c13.2,0,25.6,6.4,33.4,17.1c2.5,3.5,1.7,8.3-1.7,10.8s-8.3,1.7-10.8-1.7
	c-4.8-6.7-12.6-10.7-20.9-10.7c-8.2,0-16,4-20.9,10.7c-2.5,3.5-7.3,4.2-10.8,1.7s-4.2-7.3-1.7-10.8
	C229.2,241.9,241.7,235.5,254.8,235.5z"/>
<path class="st1" d="M176.7,408.5V512h-15.5V408.5c0-4.3,3.5-7.7,7.7-7.7C173.3,400.8,176.7,404.2,176.7,408.5z"/>
<path class="st1" d="M348.4,408.5V512h-15.5V408.5c0-4.3,3.5-7.7,7.7-7.7C344.9,400.8,348.4,404.2,348.4,408.5z"/>
</svg>
